<svg xmlns="http://www.w3.org/2000/svg" viewBox="0 0 322.24979 36.4744" height="36.4744mm" width="322.24979mm">
	<g transform="translate(-0.20319782,-0.17923075)">
		<path d="M 25.298397,9.6280306 C 24.383997,3.1256307 18.694398,0.28083075 13.207998,0.28083075 9.0931977,0.28083075 4.8259977,1.9064307 2.4383978,5.0052307 0.91439781,6.9864306 0.30479782,9.3740306 0.50799781,11.761631 v -0.0508 C 1.0667978,19.12763 7.5691977,20.34683 13.106398,20.90563 c 3.556,0.3556 7.2136,0.8128 7.8232,3.5052 0.1016,0.4572 0.1524,0.8636 0.1524,1.2192 0,3.6576 -4.1656,5.7912 -7.9756,5.7912 -3.3020003,0 -7.3152003,-1.7272 -7.6708003,-5.0292 v 0.2032 l -0.0508,-0.762 -5.18159988,0.1016 0.0508,0.9652 c 0.66039999,6.35 7.31519988,9.6012 12.80160018,9.6012 6.4008,0 13.207999,-3.9624 13.207999,-10.8204 0,-0.7112 -0.1016,-1.5748 -0.254,-2.3368 -1.3716,-5.6896 -7.416799,-6.959599 -12.293599,-7.569199 -3.8100003,-0.3556 -7.8232003,-0.8128 -8.0772003,-4.4704 -0.1016,-1.2192 0.1524,-2.3876004 0.8636,-3.3020004 1.4224,-1.8287999 4.0640003,-2.6415999 6.4516003,-2.6923999 3.0988,-0.0508 6.5532,1.3208 7.2644,4.5211999 z" />
		<path d="M 30.476823,0.63643074 V 36.19643 h 5.1816 v -11.8364 h 7.8232 c 7.670799,0 11.531599,-5.8928 11.531599,-11.836399 0,-5.9436003 -3.8608,-11.88720026 -11.531599,-11.88720026 z M 35.658423,19.28003 V 5.8180307 h 7.8232 c 4.318,0 6.4516,3.3527999 6.4516,6.7564003 0,3.3528 -2.1336,6.705599 -6.4516,6.705599 z" />
		<path d="m 71.519252,36.55203 c 6.096,0 13.1064,-3.7592 13.1064,-10.9728 V 0.68723074 h -5.1816 V 25.52843 c 0,3.9116 -4.2164,5.8928 -7.9248,5.8928 -3.7592,0 -7.9756,-1.9304 -7.9756,-5.842 V 0.68723074 H 58.362053 V 25.52843 c 0,7.2644 6.908799,11.0236 13.157199,11.0236 z" />
		<path d="m 96.326326,20.60083 12.954004,15.5956 h 6.6548 l -11.2268,-13.3604 c 6.096,-1.0668 9.1948,-5.842 9.1948,-10.871199 0,-5.6388003 -3.8608,-11.32840026 -11.5824,-11.32840026 H 89.366726 V 36.19643 h 5.08 V 5.8180307 h 7.874004 c 4.318,0 6.4516,3.0987999 6.4516,6.1468003 0,3.0988 -2.1336,6.197599 -6.4516,6.197599 h -5.994404 z" />
		<path d="M 123.07252,31.06563 V 5.8180307 h 7.62 c 8.2296,0 12.3952,6.3500003 12.3952,12.6491993 0,6.2992 -4.1656,12.5984 -12.3952,12.5984 z M 117.94172,0.68723074 V 36.19643 h 12.7508 c 11.6332,0 17.4752,-8.8392 17.4752,-17.7292 0,-8.8899994 -5.842,-17.77999926 -17.4752,-17.77999926 z" />
		<path d="m 182.14656,18.41643 c 0,3.6576 -1.4732,6.858 -3.7592,9.1948 -2.3876,2.3876 -5.6896,3.8608 -9.1948,3.8608 -3.5052,0 -6.7564,-1.4732 -9.0932,-3.8608 -2.3368,-2.3368 -3.81,-5.588 -3.81,-9.1948 0,-3.606799 1.4732,-6.857999 3.81,-9.1947994 2.3368,-2.3876 5.588,-3.8607999 9.0932,-3.8607999 3.5052,0 6.8072,1.4731999 9.1948,3.8607999 2.286,2.3368004 3.7592,5.5372004 3.7592,9.1947994 z m -31.0388,0 c 0,5.0292 2.0828,9.5504 5.2832,12.8524 3.2512,3.3528 7.8232,5.3848 12.8016,5.3848 5.0292,0 9.5504,-2.032 12.8524,-5.3848 3.2004,-3.302 5.2832,-7.8232 5.2832,-12.8524 0,-5.029199 -2.0828,-9.5503994 -5.2832,-12.8523993 -3.302,-3.302 -7.8232,-5.38479995 -12.8524,-5.38479995 -4.9784,0 -9.5504,2.08279995 -12.8016,5.38479995 -3.2004,3.3019999 -5.2832,7.8232003 -5.2832,12.8523993 z" />
		<path d="m 195.59905,0.68723074 h -5.1308 V 36.19643 h 5.1308 v -15.4432 h 15.0368 v 15.4432 h 5.1816 V 0.68723074 h -5.1816 V 15.673231 h -15.0368 z" />
		<path d="m 249.21845,18.41643 c 0,3.6576 -1.4732,6.858 -3.7592,9.1948 -2.3876,2.3876 -5.6896,3.8608 -9.1948,3.8608 -3.5052,0 -6.7564,-1.4732 -9.0932,-3.8608 -2.3368,-2.3368 -3.81,-5.588 -3.81,-9.1948 0,-3.606799 1.4732,-6.857999 3.81,-9.1947994 2.3368,-2.3876 5.588,-3.8607999 9.0932,-3.8607999 3.5052,0 6.8072,1.4731999 9.1948,3.8607999 2.286,2.3368004 3.7592,5.5372004 3.7592,9.1947994 z m -31.0388,0 c 0,5.0292 2.0828,9.5504 5.2832,12.8524 3.2512,3.3528 7.8232,5.3848 12.8016,5.3848 5.0292,0 9.5504,-2.032 12.8524,-5.3848 3.2004,-3.302 5.2832,-7.8232 5.2832,-12.8524 0,-5.029199 -2.0828,-9.5503994 -5.2832,-12.8523993 -3.302,-3.302 -7.8232,-5.38479995 -12.8524,-5.38479995 -4.9784,0 -9.5504,2.08279995 -12.8016,5.38479995 -3.2004,3.3019999 -5.2832,7.8232003 -5.2832,12.8523993 z" />
		<path d="m 287.71533,18.41643 c 0,3.6576 -1.4732,6.858 -3.7592,9.1948 -2.3876,2.3876 -5.6896,3.8608 -9.1948,3.8608 -3.5052,0 -6.7564,-1.4732 -9.0932,-3.8608 -2.3368,-2.3368 -3.81,-5.588 -3.81,-9.1948 0,-3.606799 1.4732,-6.857999 3.81,-9.1947994 2.3368,-2.3876 5.588,-3.8607999 9.0932,-3.8607999 3.5052,0 6.8072,1.4731999 9.1948,3.8607999 2.286,2.3368004 3.7592,5.5372004 3.7592,9.1947994 z m -31.03879,0 c 0,5.0292 2.08279,9.5504 5.28319,12.8524 3.2512,3.3528 7.8232,5.3848 12.8016,5.3848 5.0292,0 9.5504,-2.032 12.8524,-5.3848 3.2004,-3.302 5.2832,-7.8232 5.2832,-12.8524 0,-5.029199 -2.0828,-9.5503994 -5.2832,-12.8523993 -3.302,-3.302 -7.8232,-5.38479995 -12.8524,-5.38479995 -4.9784,0 -9.5504,2.08279995 -12.8016,5.38479995 -3.2004,3.3019999 -5.28319,7.8232003 -5.28319,12.8523993 z" />
		<path d="M 296.13859,0.68723074 V 36.19643 h 5.08 V 0.68723074 Z m 6.0452,19.04999926 13.5636,16.4592 h 6.7056 l -14.986,-17.8816 13.5636,-17.62759926 h -6.4516 L 302.18379,17.14643 Z" />
	</g>
</svg>